<?xml version="1.0" encoding="UTF-8" standalone="no"?>
<svg
   width="1318"
   height="800"
   version="1.1"
   id="svg200"
   xmlns:xlink="http://www.w3.org/1999/xlink"
   xmlns="http://www.w3.org/2000/svg"
   xmlns:svg="http://www.w3.org/2000/svg">
  <defs
     id="defs178">
    <linearGradient
       x1="-301.79257"
       y1="-587.42511"
       x2="652.19879"
       y2="666.94495"
       id="a"
       gradientTransform="scale(1.251703,0.79891154)"
       gradientUnits="userSpaceOnUse">
      <stop
         stop-color="#FF52C1"
         offset="0%"
         id="stop149" />
      <stop
         stop-color="#F952C5"
         offset="4.09%"
         id="stop151" />
      <stop
         stop-color="#9952FF"
         stop-opacity="0"
         offset="100%"
         id="stop153" />
    </linearGradient>
    <linearGradient
       x1="-433.94122"
       y1="-252.96608"
       x2="662.42084"
       y2="1250.2209"
       id="b"
       gradientTransform="scale(1.5608251,0.64068676)"
       gradientUnits="userSpaceOnUse">
      <stop
         stop-color="#FF52C1"
         offset="0%"
         id="stop156" />
      <stop
         stop-color="#F952C5"
         offset="4.09%"
         id="stop158" />
      <stop
         stop-color="#9952FF"
         stop-opacity="0"
         offset="100%"
         id="stop160" />
    </linearGradient>
    <linearGradient
       x1="0.21681"
       y1="0.05006"
       x2="1.4586099"
       y2="1.4559101"
       id="d">
      <stop
         stop-color="#FF52C1"
         offset="0%"
         id="stop168" />
      <stop
         stop-color="#9952FF"
         offset="100%"
         id="stop170" />
    </linearGradient>
    <linearGradient
       x1="73.355751"
       y1="709.92365"
       x2="118.60662"
       y2="773.99854"
       id="e"
       gradientUnits="userSpaceOnUse">
      <stop
         stop-color="#FF52C1"
         offset="0%"
         id="stop173" />
      <stop
         stop-color="#9952FF"
         offset="100%"
         id="stop175" />
    </linearGradient>
    <linearGradient
       xlink:href="#d"
       id="linearGradient459"
       x1="1097.1088"
       y1="691.77228"
       x2="1144.2972"
       y2="745.19458"
       gradientUnits="userSpaceOnUse" />
    <linearGradient
       xlink:href="#d"
       id="linearGradient461"
       x1="1263.7394"
       y1="78.40136"
       x2="1333.2802"
       y2="157.12897"
       gradientUnits="userSpaceOnUse" />
    <linearGradient
       xlink:href="#d"
       id="linearGradient463"
       x1="925.56494"
       y1="49.22892"
       x2="965.30255"
       y2="94.216125"
       gradientUnits="userSpaceOnUse" />
    <linearGradient
       xlink:href="#d"
       id="linearGradient465"
       x1="694.56494"
       y1="172.22893"
       x2="734.30255"
       y2="217.21613"
       gradientUnits="userSpaceOnUse" />
    <linearGradient
       xlink:href="#d"
       id="linearGradient467"
       x1="1232.2068"
       y1="598.37201"
       x2="1253.3174"
       y2="622.27148"
       gradientUnits="userSpaceOnUse" />
  </defs>
  <g
     fill="none"
     fill-rule="evenodd"
     id="g198">
    <path
       fill="url(#a)"
       transform="matrix(-1,0,0,1,834.817,0)"
       d="M 0,0 H 409.224 L 834.817,376 V 532.83 Z"
       id="path180"
       style="fill:url(#a)" />
    <path
       fill="url(#b)"
       transform="rotate(180,528.65,584)"
       d="m 0,367 641.153,0.138 416.147,306.161 V 801 Z"
       id="path182"
       style="fill:url(#b)" />
    <rect
       fill="url(#d)"
       opacity="0.558"
       transform="rotate(45,1107.87,708.87)"
       x="1088.87"
       y="689.87"
       width="38"
       height="38"
       rx="3"
       id="rect186"
       style="fill:url(#linearGradient459)" />
    <rect
       fill="url(#d)"
       opacity="0.503"
       transform="rotate(45,1279.598,103.598)"
       x="1251.598"
       y="75.598"
       width="56"
       height="56"
       rx="3"
       id="rect188"
       style="fill:url(#linearGradient461)" />
    <rect
       fill="url(#d)"
       opacity="0.558"
       transform="rotate(45,934.627,63.627)"
       x="918.62701"
       y="47.626999"
       width="32"
       height="32"
       rx="3"
       id="rect190"
       style="fill:url(#linearGradient463)" />
    <rect
       fill="url(#d)"
       opacity="0.558"
       transform="rotate(45,703.627,186.627)"
       x="687.62701"
       y="170.627"
       width="32"
       height="32"
       rx="3"
       id="rect192"
       style="fill:url(#linearGradient465)" />
    <rect
       fill="url(#d)"
       opacity="0.387"
       transform="rotate(45,1237.02,606.02)"
       x="1228.521"
       y="597.521"
       width="17"
       height="17"
       rx="1"
       id="rect194"
       style="fill:url(#linearGradient467)" />
    <path
       d="m 91.477,739.477 v -16.5 a 5,5 0 0 1 10,0 v 16.5 h 16.5 a 5,5 0 0 1 0,10 h -16.5 v 16.5 a 5,5 0 1 1 -10,0 v -16.5 h -16.5 a 5,5 0 1 1 0,-10 z"
       fill="url(#e)"
       opacity="0.211"
       transform="rotate(45,96.477,744.477)"
       id="path196"
       style="fill:url(#e)" />
  </g>
</svg>
